<?xml version="1.0" encoding="UTF-8"?>
<svg id="Layer_1" data-name="Layer 1" xmlns="http://www.w3.org/2000/svg" viewBox="0 0 277.19 130.8">
  <defs>
    <style>
      .cls-1 {
        fill: #fff;
      }
    </style>
  </defs>
  <path class="cls-1" d="M13.03,8.2c-.3,4.6-.9,9.3-1.2,10.5-.7,2.4,2.2,3.9,5.5,2.8,1.6-.5,1.9-1.2,1.5-3.8-.3-1.8-.1-6.5,.4-10.5l.8-7.2h-6.3l-.7,8.2Z"/>
  <path class="cls-1" d="M27.13,4.7c-2.6,5.1-5.7,23.6-5.7,33.9,0,3.4-.4,5.3-1,4.9-.6-.3-1-5-1-10.6v-9.9h-7.7l.8,4.2c.4,2.4,.8,8.1,.9,12.7,0,7.2,.2,8.2,1.6,7.7,.9-.3,2.6-.6,3.9-.6,2,0,2.6-1.1,5-8.7,1.5-4.9,4.1-11.4,5.7-14.7l3-5.9,7.9,7.9c9.1,9,10.8,8.6,2.1-.5-5.7-6.1-5.8-7.1-.6-5.1,1.5,.6,2.9,.9,3.1,.6,.9-.9-3.9-2.7-8.9-3.5l-5-.8-2.5,5.6c-1.4,3.1-3.4,7.8-4.4,10.6l-1.8,5,.6-5.5c.3-3,1.1-8.9,1.7-13l1.1-7.5,6.3-1.4c6.1-1.4,9-3.8,3.2-2.7-1.6,.3-4.4,.9-6.1,1.2l-3,.6,2.1-4.2c1.2-2.3,1.9-4.4,1.6-4.7-.2-.3-1.6,1.7-2.9,4.4Z"/>
  <path class="cls-1" d="M57.43,9.5c-.5,5.7-.1,9.6,1.1,12.8,.9,2.2,1.4,2.5,2.5,1.6,.8-.6,1.4-1.8,1.4-2.6,0-.7,.9-3.3,2-5.6l2.1-4.2-2.1,2.4c-2.4,2.8-2.6,1.7-.4-3.4,.8-2,1.3-3.9,1-4.2-1-1-4.6,7.8-4.6,11.3,0,6.1-1.3,2.9-2-4.9-.6-5.6-.8-6.3-1-3.2Z"/>
  <path class="cls-1" d="M76.83,9.4c-1.8,.8-3.5,1.9-3.8,2.5-.9,1.4-1,1.4,5.3-.9,2.9-1.2,5.5-1.9,5.8-1.7,.9,1-8.9,4.9-10.9,4.4-1.5-.4-3.2,.5-6.2,3.5l-4.1,4.1,3.8-3.1c2.1-1.8,4.5-3.2,5.5-3.2,1.8,0-7.3,8.8-11.5,11.1-3,1.6-21.3,19.5-21.3,20.8,0,.5-1.7,4.4-3.7,8.6-3,6.4-3.4,7.8-2.2,8.7,1.1,.8,1.1,.9-.3,.4-1.3-.4-2.2,.7-3.7,5-1.2,3-2.1,5.8-2.1,6.2s-.7,2-1.5,3.6c-1.4,2.6-1.4,3,.2,4.3,1.7,1.3,1.6,1.4-.4,1-1.7-.4-2.4,.1-2.8,1.7-2.3,8-5,15.6-5.7,15.6-1.5,0-.8,4.8,.8,5.4,2.7,1,3.4,.7,3.4-1.9,0-1.3,1.2-5.5,2.6-9.2,4-10.5,9.4-25.1,11.9-32.3,1.2-3.6,3.4-8.9,4.9-11.7,1.4-2.9,2.7-5.6,2.9-6,.1-.4,2.2-2.6,4.7-4.8,3.5-3.3,6.4-4.8,13.4-6.9,4.8-1.5,8.9-2.6,9.1-2.4,.1,.2,1.5,2.8,3,5.8,3.3,6.5,8.5,14.3,9.2,13.7,.2-.3-1.1-3.7-3-7.6-3.6-7.6-3.6-9.1,.1-3.7,2.5,3.6,7.2,8.4,7.2,7.2,0-2-7.4-11.9-10-13.4-1.7-.9-3-2-3-2.4,0-.3,2.1-1.9,4.8-3.4,15.6-8.9,15-8.6,11.2-7.8-5.7,1-12.6,4.3-15.6,7.5-1.5,1.6-3.7,2.9-4.8,2.9-1.2,0-5.2,1.2-9.1,2.5-3.8,1.4-7.2,2.5-7.4,2.5-.5,0,3.4-3.6,10.4-9.5,3.3-2.8,6.8-5.8,7.9-6.8,2.2-1.9,7.7-2.3,10.8-.6,1.1,.6,2.2,.8,2.5,.5,.5-.5-1-1.3-6.2-3.2-1.6-.6-1.3-.9,2-1.6,2.2-.5,6.5-1.2,9.5-1.7,3.8-.5,5-1,3.8-1.5-.9-.4-3.8-.3-6.3,.2s-4.5,.6-4.5,.1,.6-.9,1.3-.9,2.2-.7,3.3-1.5c1.7-1.3,1.5-1.4-3.1-1.4-2.7,0-6.4,.6-8.1,1.3Z"/>
  <path class="cls-1" d="M115.43,70.6c0,40.9,.3,60.5,1,60.2,1.7-.5,1.9-119.6,.3-120.3-1-.3-1.3,12.1-1.3,60.1Z"/>
  <path class="cls-1" d="M29.93,13c2.8,1.2,7.3,1.2,8,0,.4-.6-1.4-1-4.7-.9-3.9,0-4.8,.3-3.3,.9Z"/>
  <path class="cls-1" d="M147.13,16.2c-.4,1.3-4.2,10.4-8.7,20.2-4.4,9.8-7.9,18-7.8,18.2,.2,.1,1.5,0,3-.3,2-.4,3.1-1.6,4.7-5.4l2-4.9h16.7l2.1,4.9c1.5,3.6,2.7,5,4.8,5.5,1.5,.4,2.9,.5,3.1,.3s-2.4-6.4-5.9-13.8-7.7-16.4-9.2-20.2c-1.6-3.7-3.2-6.7-3.6-6.7s-.9,1-1.2,2.2Zm2,23.6c-3.3,.2-6.1,.1-6.3-.1s1-3.5,2.7-7.3l3.1-6.8,3.2,6.9,3.2,7-5.9,.3Z"/>
  <path class="cls-1" d="M188.63,34.2l.3,20.2h5V26.3l14.7,15.1,14.7,15.1,.1-20.8V15h-6.2l.4,14c.2,7.7,0,14-.3,14-.4,0-2.6-2.1-4.9-4.8-5.2-5.8-23.1-24.2-23.7-24.2-.2,0-.2,9.1-.1,20.2Z"/>
  <path class="cls-1" d="M33.73,21.7c3.2,7,7.2,14.3,7.8,14.3,1.3,0-2.9-10-5.6-13.6-3.1-4.1-3.8-4.3-2.2-.7Z"/>
  <path class="cls-1" d="M77.73,32.5c1,.7,4.2,1.9,7,2.6,2.9,.6,7.8,2.5,11.1,4.1,3.2,1.6,6,2.7,6.3,2.4s-3-2.8-7.2-5.5c-7-4.6-8.3-5.1-13.4-5.1-5,.1-5.4,.2-3.8,1.5Z"/>
  <path class="cls-1" d="M70.03,36.8c-.8,3.5,.1,14.3,1.5,17.7,1,2.5,1-13.7,0-18l-.7-3-.8,3.3Z"/>
  <path class="cls-1" d="M60.03,47.1c-1.9,4.1-3.8,8.3-4.1,9.4-.6,1.7-.9,1.3-2.1-2-.9-2.2-1.8-4.8-2.1-5.8-.3-.9-.9-1.7-1.4-1.7-1,0,1.5,8.4,3.4,11.3,1.3,1.9,1.2,2.9-.8,8.7-3.1,9.2-5.6,13.6-11.5,20.5-6.5,7.7-14.3,20.6-13.2,21.7,.6,.6,2.1-1.1,3.7-3.9,1.5-2.6,3.9-6,5.2-7.5,1.4-1.4,2.2-3.1,1.8-3.7-.3-.7-.3-1.1,.2-1,.4,.1,2.2-.3,3.8-1,4-1.7,11.8-2.7,18.1-2.3l5.1,.3,1.3,7c1.5,7.7,3.4,10.7,2.4,3.7-.3-2.4-.7-4.9-1-5.6-.9-2.9,1.8,.3,4.1,4.9,1.4,2.7,2.7,4.9,2.9,4.9,1.1,0-2.7-9.7-4.7-11.8l-2.2-2.4,3.9,1.6c2.1,.9,4,1.6,4.2,1.6s.5,1.9,.5,4.2c.1,2.4,.5,5.6,1,7.3,.6,2.2,.7,1.4,.5-3.4-.2-6.2-.2-6.4,1.3-4.1,.9,1.3,2.4,3.3,3.3,4.4q1.7,2.1,1.1-.4c-.3-1.4-1.5-3.5-2.6-4.8l-2.1-2.2,5,1.6c2.7,.8,5.7,1.8,6.7,2.1,3.2,1,1.7-.5-2.6-2.6-2.4-1.2-5.3-2.1-6.5-2.1-1.1,0-3.3-.5-4.9-1.1-11.3-4.5-24.5-6-31.5-3.5-2.1,.8-3.8,1.1-3.8,.9,0-.3,2.2-3.3,4.9-6.7,5.3-6.7,12.5-13.7,15.9-15.5,2-1.1,1.9-.7-.9,7.6-2.8,8.4-3.9,14.5-1.7,9.3,.6-1.4,2.2-4.8,3.5-7.7,1.2-2.8,2.4-6.2,2.4-7.5,.1-1.3,.7,1.1,1.4,5.2l1.2,7.5,.2-6.2c.1-6.1-1.3-11.3-3.2-11.3-1.3,0-6.6,3.7-11.1,7.9-2.7,2.5-3.7,3-3.1,1.6,.4-1.1,1.5-4.6,2.4-7.7,1.1-4,2.2-6,3.8-6.7,2.8-1.3,11.5-9.2,10.9-9.9-.3-.2-3.2,1.7-6.5,4.2l-5.9,4.6,3.9-9.2c2.1-5,3.7-9.3,3.4-9.6-.2-.2-2,2.9-3.9,6.9Z"/>
  <path class="cls-1" d="M16.63,48.7c-2.7,.4-3.2,.8-2.7,2.1,1,2.5,3.5,18.2,3.5,21.9,0,2.8,.4,3.3,2.3,3.3,4.4,0,4.8-1.1,3.7-8.6-.5-3.8-1-9-1-11.6,0-4.8-.8-7.9-1.9-7.6-.3,0-2.1,.3-3.9,.5Z"/>
  <path class="cls-1" d="M7.83,67.6c.3,1.6,.8,4.7,1.2,6.9s1.3,5.3,2.2,6.9c1.2,2.6,.7,2.3-4.4-2.2-3.2-2.9-6.2-5.2-6.7-5.2-1,0,4.1,5.9,9.7,11.2,2.4,2.3,4.1,5.3,5.5,9.8,2.9,9.2,1.7,1.1-1.4-9.5-1.3-4.4-2.9-10.6-3.6-13.8-1.2-5.8-3.6-9.6-2.5-4.1Z"/>
  <path class="cls-1" d="M57.03,77.1c-5.1,7-5.6,9.3-1.1,4.4,3.5-3.8,6-8.3,5.2-9.2-.3-.2-2.1,1.9-4.1,4.8Z"/>
  <path class="cls-1" d="M22.53,76.9c-.7,.5-2.2,.6-3.3,.3-1.8-.4-1.9-.1-1.3,4.4,.4,2.7,1.1,6.5,1.5,8.4l.7,3.5,.7-4c.4-2.2,1.6-5.9,2.7-8.3,2.5-5.6,2.3-6.4-1-4.3Z"/>
  <path class="cls-1" d="M258.43,86.8c0,.6-4,9.9-8.9,20.7l-8.9,19.5h2.9c2.5,0,3.1-.7,5-5l2.1-5h17l2.1,5c1.8,4.4,2.5,5,5,5,1.9,0,2.7-.4,2.4-1.3-1.4-3.2-18-39.3-18.3-39.6-.2-.2-.4,.1-.4,.7Zm4,18.8c1.6,3.7,3,6.8,3,7s-2.9,.4-6.4,.4h-6.4l3.1-7c1.7-3.9,3.2-7,3.4-7,.1,0,1.6,3,3.3,6.6Z"/>
  <path class="cls-1" d="M143.33,89.3c-11.5,6.1-14.6,21.5-6.2,30.8,5,5.5,10,7.9,16.6,7.9,8,0,11.4-1.5,11.9-5.1,.4-2.7,.2-3-1.6-2.4-7.4,2.4-10.3,2.7-14.3,1.6-13.8-3.7-15.9-21.7-3.3-28.1,4.7-2.4,9.7-2.6,14.7-.5,4.9,2.1,5.1,2,4.4-1.7-.8-3.8-2.7-4.6-11.7-4.7-4.6-.1-7.2,.5-10.5,2.2Z"/>
  <path class="cls-1" d="M189.43,107.5v19.5h2.5q2.5,0,2.5-9.5v-9.5h19v9.5q0,9.5,2.5,9.5h2.5v-39h-2.5c-2.4,0-2.5,.2-2.5,7.5v7.5h-19v-7.5c0-7.3-.1-7.5-2.5-7.5h-2.5v19.5Z"/>
  <path class="cls-1" d="M25.43,94.2c0,.9-.3,2.3-.6,3.2-.4,1.1,0,1.6,1.2,1.7,1.7,0,1.6,.1-.2,.9-2.2,.9-3.4,4.6-3.4,10.7,0,3.9,1.4,3.7,2.5-.4,.3-1.6,1.2-3.5,1.9-4.3,2.4-2.7,2.6-6.3,.6-10-1.1-2-1.9-2.8-2-1.8Z"/>
  <path class="cls-1" d="M15.43,110.2c0,1.3-1.3,6-2.8,10.5-2,5.7-2.4,8.3-1.6,8.3,.7,0,1.9,.3,2.8,.6,1.1,.4,1.7-.2,2.1-2.3,.4-1.5,1.6-6.1,2.7-10.1,1.2-4,1.9-7.4,1.7-7.6s-1.4-.7-2.6-1c-1.9-.6-2.3-.4-2.3,1.6Z"/>
  <path class="cls-1" d="M24.03,114.4c-2.4,4.1-6.6,13.1-6.6,14.2,0,.2,.9,.4,2,.4,1.4,0,2-.7,2-2.3,0-2.6,5.8-15.3,6.6-14.4,.3,.3-.5,2.5-1.7,4.9-2.3,4.4-2.6,10.2-.8,12.5,.8,.8,1.9,.6,4.4-1,3.4-2.2,4.5-5.3,2.5-7.3-.6-.6-1.6-3.3-2.3-5.9-.7-2.7-1.7-5-2.3-5.2-.7-.2-2.3,1.6-3.8,4.1Z"/>
</svg>