<?xml version="1.0" standalone="no"?>
<!DOCTYPE svg PUBLIC "-//W3C//DTD SVG 20010904//EN"
 "http://www.w3.org/TR/2001/REC-SVG-20010904/DTD/svg10.dtd">
<svg version="1.0" xmlns="http://www.w3.org/2000/svg"
 width="300.000000pt" height="300.000000pt" viewBox="0 0 300.000000 300.000000"
 preserveAspectRatio="xMidYMid meet">
<metadata>
Created by potrace 1.10, written by Peter Selinger 2001-2011
</metadata>
<g transform="translate(0.000000,300.000000) scale(0.100000,-0.100000)"
fill="#000000" stroke="none">
<path d="M316 2198 c-3 -46 -9 -93 -12 -105 -7 -24 22 -39 55 -28 16 5 19 12
15 38 -3 18 -1 65 4 105 l8 72 -31 0 -32 0 -7 -82z"/>
<path d="M457 2233 c-26 -51 -57 -236 -57 -339 0 -34 -4 -53 -10 -49 -6 3 -10
50 -10 106 l0 99 -39 0 -38 0 8 -42 c4 -24 8 -81 9 -127 0 -72 2 -82 16 -77 9
3 26 6 39 6 20 0 26 11 50 87 15 49 41 114 57 147 l30 59 79 -79 c91 -90 108
-86 21 5 -57 61 -58 71 -6 51 15 -6 29 -9 31 -6 9 9 -39 27 -89 35 l-50 8 -25
-56 c-14 -31 -34 -78 -44 -106 l-18 -50 6 55 c3 30 11 89 17 130 l11 75 63 14
c61 14 90 38 32 27 -16 -3 -44 -9 -61 -12 l-30 -6 21 42 c12 23 19 44 16 47
-2 3 -16 -17 -29 -44z"/>
<path d="M760 2185 c-5 -57 -1 -96 11 -128 9 -22 14 -25 25 -16 8 6 14 18 14
26 0 7 9 33 20 56 l21 42 -21 -24 c-24 -28 -26 -17 -4 34 8 20 13 39 10 42
-10 10 -46 -78 -46 -113 0 -61 -13 -29 -20 49 -6 56 -8 63 -10 32z"/>
<path d="M954 2186 c-18 -8 -35 -19 -38 -25 -9 -14 -10 -14 53 9 29 12 55 19
58 17 9 -10 -89 -49 -109 -44 -15 4 -32 -5 -62 -35 l-41 -41 38 31 c21 18 45
32 55 32 18 0 -73 -88 -115 -111 -30 -16 -213 -195 -213 -208 0 -5 -17 -44
-37 -86 -30 -64 -34 -78 -22 -87 11 -8 11 -9 -3 -4 -13 4 -22 -7 -37 -50 -12
-30 -21 -58 -21 -62 0 -4 -7 -20 -15 -36 -14 -26 -14 -30 2 -43 17 -13 16 -14
-4 -10 -17 4 -24 -1 -28 -17 -23 -80 -50 -156 -57 -156 -15 0 -8 -48 8 -54 27
-10 34 -7 34 19 0 13 12 55 26 92 40 105 94 251 119 323 12 36 34 89 49 117
14 29 27 56 29 60 1 4 22 26 47 48 35 33 64 48 134 69 48 15 89 26 91 24 1 -2
15 -28 30 -58 33 -65 85 -143 92 -137 2 3 -11 37 -30 76 -36 76 -36 91 1 37
25 -36 72 -84 72 -72 0 20 -74 119 -100 134 -17 9 -30 20 -30 24 0 3 21 19 48
34 156 89 150 86 112 78 -57 -10 -126 -43 -156 -75 -15 -16 -37 -29 -48 -29
-12 0 -52 -12 -91 -25 -38 -14 -72 -25 -74 -25 -5 0 34 36 104 95 33 28 68 58
79 68 22 19 77 23 108 6 11 -6 22 -8 25 -5 5 5 -10 13 -62 32 -16 6 -13 9 20
16 22 5 65 12 95 17 38 5 50 10 38 15 -9 4 -38 3 -63 -2 -25 -5 -45 -6 -45 -1
0 5 6 9 13 9 7 0 22 7 33 15 17 13 15 14 -31 14 -27 0 -64 -6 -81 -13z"/>
<path d="M1340 1574 c0 -409 3 -605 10 -602 17 5 19 1196 3 1203 -10 3 -13
-121 -13 -601z"/>
<path d="M485 2150 c28 -12 73 -12 80 0 4 6 -14 10 -47 9 -39 0 -48 -3 -33 -9z"/>
<path d="M1657 2118 c-4 -13 -42 -104 -87 -202 -44 -98 -79 -180 -78 -182 2
-1 15 0 30 3 20 4 31 16 47 54 l20 49 83 0 84 0 21 -49 c15 -36 27 -50 48 -55
15 -4 29 -5 31 -3 2 2 -24 64 -59 138 -35 74 -77 164 -92 202 -16 37 -32 67
-36 67 -4 0 -9 -10 -12 -22z m20 -236 c-33 -2 -61 -1 -63 1 -2 2 10 35 27 73
l31 68 32 -69 32 -70 -59 -3z"/>
<path d="M2072 1938 l3 -202 25 0 25 0 0 141 0 140 147 -151 147 -151 1 208 0
207 -31 0 -31 0 4 -140 c2 -77 0 -140 -3 -140 -4 0 -26 21 -49 48 -52 58 -231
242 -237 242 -2 0 -2 -91 -1 -202z"/>
<path d="M523 2063 c32 -70 72 -143 78 -143 13 0 -29 100 -56 136 -31 41 -38
43 -22 7z"/>
<path d="M963 1955 c10 -7 42 -19 70 -26 29 -6 78 -25 111 -41 32 -16 60 -27
63 -24 3 3 -30 28 -72 55 -70 46 -83 51 -134 51 -50 -1 -54 -2 -38 -15z"/>
<path d="M886 1912 c-8 -35 1 -143 15 -177 10 -25 10 137 0 180 l-7 30 -8 -33z"/>
<path d="M786 1809 c-19 -41 -38 -83 -41 -94 -6 -17 -9 -13 -21 20 -9 22 -18
48 -21 58 -3 9 -9 17 -14 17 -10 0 15 -84 34 -113 13 -19 12 -29 -8 -87 -31
-92 -56 -136 -115 -205 -65 -77 -143 -206 -132 -217 6 -6 21 11 37 39 15 26
39 60 52 75 14 14 22 31 18 37 -3 7 -3 11 2 10 4 -1 22 3 38 10 40 17 118 27
181 23 l51 -3 13 -70 c15 -77 34 -107 24 -37 -3 24 -7 49 -10 56 -9 29 18 -3
41 -49 14 -27 27 -49 29 -49 11 0 -27 97 -47 118 l-22 24 39 -16 c21 -9 40
-16 42 -16 2 0 5 -19 5 -42 1 -24 5 -56 10 -73 6 -22 7 -14 5 34 -2 62 -2 64
13 41 9 -13 24 -33 33 -44 17 -21 17 -21 11 4 -3 14 -15 35 -26 48 l-21 22 50
-16 c27 -8 57 -18 67 -21 32 -10 17 5 -26 26 -24 12 -53 21 -65 21 -11 0 -33
5 -49 11 -113 45 -245 60 -315 35 -21 -8 -38 -11 -38 -9 0 3 22 33 49 67 53
67 125 137 159 155 20 11 19 7 -9 -76 -28 -84 -39 -145 -17 -93 6 14 22 48 35
77 12 28 24 62 24 75 1 13 7 -11 14 -52 l12 -75 2 62 c1 61 -13 113 -32 113
-13 0 -66 -37 -111 -79 -27 -25 -37 -30 -31 -16 4 11 15 46 24 77 11 40 22 60
38 67 28 13 115 92 109 99 -3 2 -32 -17 -65 -42 l-59 -46 39 92 c21 50 37 93
34 96 -2 2 -20 -29 -39 -69z"/>
<path d="M352 1793 c-27 -4 -32 -8 -27 -21 10 -25 35 -182 35 -219 0 -28 4
-33 23 -33 44 0 48 11 37 86 -5 38 -10 90 -10 116 0 48 -8 79 -19 76 -3 0 -21
-3 -39 -5z"/>
<path d="M264 1604 c3 -16 8 -47 12 -69 4 -22 13 -53 22 -69 12 -26 7 -23 -44
22 -32 29 -62 52 -67 52 -10 0 41 -59 97 -112 24 -23 41 -53 55 -98 29 -92 17
-11 -14 95 -13 44 -29 106 -36 138 -12 58 -36 96 -25 41z"/>
<path d="M756 1509 c-51 -70 -56 -93 -11 -44 35 38 60 83 52 92 -3 2 -21 -19
-41 -48z"/>
<path d="M411 1511 c-7 -5 -22 -6 -33 -3 -18 4 -19 1 -13 -44 4 -27 11 -65 15
-84 l7 -35 7 40 c4 22 16 59 27 83 25 56 23 64 -10 43z"/>
<path d="M2770 1412 c0 -6 -40 -99 -89 -207 l-89 -195 29 0 c25 0 31 7 50 50
l21 50 85 0 85 0 21 -50 c18 -44 25 -50 50 -50 19 0 27 4 24 13 -14 32 -180
393 -183 396 -2 2 -4 -1 -4 -7z m40 -188 c16 -37 30 -68 30 -70 0 -2 -29 -4
-64 -4 l-64 0 31 70 c17 39 32 70 34 70 1 0 16 -30 33 -66z"/>
<path d="M1619 1387 c-115 -61 -146 -215 -62 -308 50 -55 100 -79 166 -79 80
0 114 15 119 51 4 27 2 30 -16 24 -74 -24 -103 -27 -143 -16 -138 37 -159 217
-33 281 47 24 97 26 147 5 49 -21 51 -20 44 17 -8 38 -27 46 -117 47 -46 1
-72 -5 -105 -22z"/>
<path d="M2080 1205 l0 -195 25 0 c25 0 25 0 25 95 l0 95 95 0 95 0 0 -95 c0
-95 0 -95 25 -95 l25 0 0 195 0 195 -25 0 c-24 0 -25 -2 -25 -75 l0 -75 -95 0
-95 0 0 75 c0 73 -1 75 -25 75 l-25 0 0 -195z"/>
<path d="M440 1338 c0 -9 -3 -23 -6 -32 -4 -11 0 -16 12 -17 17 0 16 -1 -2 -9
-22 -9 -34 -46 -34 -107 0 -39 14 -37 25 4 3 16 12 35 19 43 24 27 26 63 6
100 -11 20 -19 28 -20 18z"/>
<path d="M340 1178 c0 -13 -13 -60 -28 -105 -20 -57 -24 -83 -16 -83 7 0 19
-3 28 -6 11 -4 17 2 21 23 4 15 16 61 27 101 12 40 19 74 17 76 -2 2 -14 7
-26 10 -19 6 -23 4 -23 -16z"/>
<path d="M426 1136 c-24 -41 -66 -131 -66 -142 0 -2 9 -4 20 -4 14 0 20 7 20
23 0 26 58 153 66 144 3 -3 -5 -25 -17 -49 -23 -44 -26 -102 -8 -125 8 -8 19
-6 44 10 34 22 45 53 25 73 -6 6 -16 33 -23 59 -7 27 -17 50 -23 52 -7 2 -23
-16 -38 -41z"/>
</g>
</svg>
